<svg width="145" height="24" viewBox="0 0 145 24" fill="none" xmlns="http://www.w3.org/2000/svg">
<g clip-path="url(#clip0_117_301)">
<path d="M0 6C6 6 6 19 12 19C18 19 18 6 24 6" stroke="white" stroke-miterlimit="10" stroke-linecap="square"/>
</g>
<path d="M24 6C30 6 30 19 36 19C42 19 42 6 48 6" stroke="white" stroke-miterlimit="10" stroke-linecap="square"/>
<path d="M48 6C54 6 54 19 60 19C66 19 66 6 72 6" stroke="white" stroke-miterlimit="10" stroke-linecap="square"/>
<path d="M72 6C78 6 78 19 84 19C90 19 90 6 96 6" stroke="white" stroke-miterlimit="10" stroke-linecap="square"/>
<path d="M96 6C102 6 102 19 108 19C114 19 114 6 120 6" stroke="white" stroke-miterlimit="10" stroke-linecap="square"/>
<path d="M120 6C126 6 126 19 132 19C138 19 138 6 144 6" stroke="white" stroke-miterlimit="10" stroke-linecap="square"/>
<defs>
<clipPath id="clip0_117_301">
<rect width="24" height="24" fill="white"/>
</clipPath>
</defs>
</svg>
