<svg width="122" height="15" viewBox="0 0 122 15" fill="none" xmlns="http://www.w3.org/2000/svg">
<path d="M1 1C7 1 7 14 13 14C19 14 19 1 25 1" stroke="white" stroke-miterlimit="10" stroke-linecap="square"/>
<path d="M25 1C31 1 31 14 37 14C43 14 43 1 49 1" stroke="white" stroke-miterlimit="10" stroke-linecap="square"/>
<path d="M49 1C55 1 55 14 61 14C67 14 67 1 73 1" stroke="white" stroke-miterlimit="10" stroke-linecap="square"/>
<path d="M73 1C79 1 79 14 85 14C91 14 91 1 97 1" stroke="white" stroke-miterlimit="10" stroke-linecap="square"/>
<path d="M97 1C103 1 103 14 109 14C115 14 115 1 121 1" stroke="white" stroke-miterlimit="10" stroke-linecap="square"/>
</svg>
