<svg width="24" height="34" viewBox="0 0 24 34" fill="none" xmlns="http://www.w3.org/2000/svg">
<path d="M23 12C23 18.0867 12 32.7778 12 32.7778C12 32.7778 1 18.0867 1 12C1 9.08262 2.15893 6.28473 4.22183 4.22183C6.28473 2.15893 9.08262 1 12 1C14.9174 1 17.7153 2.15893 19.7782 4.22183C21.8411 6.28473 23 9.08262 23 12Z" stroke="white" stroke-width="2" stroke-linecap="round" stroke-linejoin="round"/>
<path d="M11.9999 15.6671C14.025 15.6671 15.6666 14.0255 15.6666 12.0004C15.6666 9.97536 14.025 8.33374 11.9999 8.33374C9.97489 8.33374 8.33327 9.97536 8.33327 12.0004C8.33327 14.0255 9.97489 15.6671 11.9999 15.6671Z" stroke="white" stroke-width="2" stroke-linecap="round" stroke-linejoin="round"/>
</svg>
