<svg width="60" height="60" viewBox="0 0 60 60" fill="none" xmlns="http://www.w3.org/2000/svg">
<circle cx="30" cy="30" r="29" stroke="#F5F5F5" stroke-width="2"/>
<path d="M33.7739 41.8621C35.0976 42.716 36.6748 43.0881 38.2406 42.9159C39.8063 42.7437 41.265 42.0376 42.3713 40.9164L43.3385 39.9706C43.7626 39.5369 44 38.9544 44 38.3479C44 37.7413 43.7626 37.1588 43.3385 36.7251L39.2333 32.6628C38.8032 32.2402 38.2243 32.0033 37.6213 32.0033C37.0182 32.0033 36.4393 32.2402 36.0092 32.6628C35.5755 33.0869 34.9931 33.3243 34.3865 33.3243C33.7799 33.3243 33.1975 33.0869 32.7637 32.6628L26.3157 26.2148C26.1006 26.0028 25.9297 25.7502 25.8132 25.4716C25.6966 25.193 25.6365 24.894 25.6365 24.592C25.6365 24.29 25.6966 23.991 25.8132 23.7124C25.9297 23.4339 26.1006 23.1812 26.3157 22.9693C26.7383 22.5392 26.9752 21.9603 26.9752 21.3572C26.9752 20.7542 26.7383 20.1753 26.3157 19.7452L22.2319 15.6615C21.7982 15.2374 21.2157 15 20.6091 15C20.0026 15 19.4201 15.2374 18.9864 15.6615L18.0407 16.6287C16.9194 17.735 16.2134 19.1937 16.0411 20.7594C15.8689 22.3252 16.241 23.9025 17.0949 25.2261C21.5442 31.7832 27.2054 37.4297 33.7739 41.8621Z" stroke="#F5F5F5" stroke-width="2" stroke-linecap="round" stroke-linejoin="round"/>
</svg>
